<svg xmlns="http://www.w3.org/2000/svg" width="66" height="65" viewBox="0 0 66 65" fill="none">
  <path d="M34.5809 38.291H29.1474C29.0265 38.291 28.9072 38.3191 28.7992 38.3733C28.5353 38.505 28.3687 38.7747 28.3687 39.0698V39.4336C28.3687 39.6598 28.4248 39.8828 28.532 40.082L29.4098 41.712L32.3847 46.7693L34.6158 50.7853L36.4625 53.8193C36.6177 54.0742 36.827 54.2922 37.0752 54.4578C37.4114 54.682 37.8062 54.8014 38.2101 54.8014H64.5256C64.712 54.8014 64.895 54.7507 65.0548 54.6547L65.29 54.5139C65.454 54.4154 65.5543 54.2381 65.5543 54.047C65.5543 53.9564 65.5317 53.8673 65.4884 53.7877L63.6205 50.339L61.2407 46.0256L58.8608 41.8608L58.0219 40.5423C57.8959 40.3445 57.6776 40.2246 57.443 40.2246C57.2136 40.2246 56.9996 40.3393 56.8722 40.5302L56.7785 40.6709L53.1801 46.5723C53.1001 46.7032 53.0072 46.8258 52.9025 46.9382C52.4726 47.3997 51.8703 47.6617 51.2397 47.6617H42.2393C41.9251 47.6617 41.6197 47.5598 41.3683 47.3714C41.2309 47.2683 41.1127 47.1416 41.0196 46.9972L38.1856 42.6044L36.1205 39.1626C36.0106 38.9796 35.8691 38.8177 35.7025 38.6843C35.3842 38.4298 34.9888 38.291 34.5809 38.291Z" fill="#A7A7A7" stroke="#A7A7A7" stroke-width="0.207775"/>
  <path d="M45.2282 0.957031H39.5857C39.451 0.957031 39.3218 1.01054 39.2264 1.10577C39.1313 1.20101 39.0779 1.33018 39.0779 1.46487V1.71146C39.0779 1.89952 39.1259 2.08445 39.2175 2.24869L52.6462 26.3328C52.7224 26.4695 52.8301 26.5861 52.9601 26.6727C53.122 26.7807 53.3121 26.8383 53.5066 26.8383H58.8892C59.0666 26.8383 59.2422 26.8021 59.4051 26.7323L59.6118 26.6438C59.9682 26.4911 60.1992 26.1406 60.1992 25.7529C60.1992 25.5869 60.1566 25.4235 60.0754 25.2787L53.357 13.3027L47.7049 3.18818L46.9893 2.11479C46.8717 1.93835 46.7369 1.77396 46.5869 1.62402L46.409 1.44613C46.2821 1.31922 46.1356 1.2136 45.975 1.13333C45.7431 1.01739 45.4875 0.957031 45.2282 0.957031Z" fill="#A7A7A7" stroke="#A7A7A7" stroke-width="0.207775"/>
  <path d="M63.0516 62.9732L65.7871 58.0379C65.8524 57.9201 65.8682 57.7813 65.8312 57.6519C65.794 57.5224 65.7069 57.4129 65.5891 57.3477L65.3735 57.228C65.2089 57.137 65.024 57.0892 64.836 57.0898L37.2609 57.1586C37.1047 57.159 36.9505 57.1966 36.8115 57.2683C36.6386 57.3577 36.4961 57.4961 36.4018 57.666L33.7923 62.3738C33.7063 62.529 33.6527 62.7 33.6348 62.8766L33.6122 63.1002C33.5729 63.4858 33.7674 63.8579 34.1065 64.0457C34.2517 64.1264 34.4152 64.1681 34.5812 64.1673L48.3129 64.0975L59.8994 64.0576L61.1851 63.952C61.3964 63.9348 61.6057 63.8966 61.8095 63.8382L62.0511 63.7688C62.2238 63.7193 62.3871 63.6424 62.5353 63.5408C62.7491 63.3944 62.9259 63.1999 63.0516 62.9732Z" fill="#A7A7A7" stroke="#A7A7A7" stroke-width="0.207775"/>
  <path d="M50.4258 26.834L37.0605 3.12131C36.9285 2.88708 36.6804 2.74219 36.4116 2.74219C36.214 2.74219 36.0245 2.82066 35.8849 2.96034L35.8766 2.96872C35.8294 3.01582 35.7887 3.06882 35.755 3.12638L28.0108 16.4231C27.9529 16.5227 27.9221 16.636 27.9221 16.7513C27.9221 16.9243 27.9909 17.0902 28.1133 17.2125L28.1623 17.2616C28.2005 17.2997 28.2423 17.334 28.2872 17.364L28.3298 17.3923C28.549 17.5384 28.8066 17.6164 29.0701 17.6164H35.2564C35.4238 17.6164 35.5911 17.6303 35.7565 17.6578L35.8799 17.6784C36.2231 17.7356 36.5502 17.865 36.8398 18.058C37.1384 18.257 37.3896 18.519 37.5762 18.8255L39.3755 21.7813L41.7402 26.2617C42.0431 26.8358 42.2014 27.4754 42.2014 28.1244V28.4789C42.2014 28.6732 42.1703 28.8662 42.1088 29.0505C42.0716 29.1621 42.0234 29.2699 41.9652 29.3723L37.9593 36.4171C37.8151 36.6708 37.7393 36.9578 37.7393 37.2495C37.7393 37.5425 37.8157 37.8304 37.9612 38.085L41.1983 43.7501C41.2669 43.87 41.3942 43.9438 41.5322 43.9438C41.6702 43.9438 41.7975 43.87 41.8659 43.7501L50.42 28.7806C50.5903 28.4826 50.6799 28.1454 50.6799 27.8022C50.6799 27.4629 50.5922 27.1294 50.4258 26.834Z" fill="#A7A7A7" stroke="#A7A7A7" stroke-width="0.207775"/>
  <path d="M38.5856 28.9238L21.8362 29.067C21.6324 29.0689 21.4316 29.1171 21.2493 29.2083C21.041 29.3124 20.8635 29.469 20.7343 29.6629L20.3365 30.2596L7.17354 53.7756C7.12426 53.8635 7.09839 53.9628 7.09839 54.0636C7.09839 54.3893 7.36249 54.6534 7.68824 54.6534H22.5325C22.6534 54.6534 22.7727 54.6254 22.8807 54.5711C23.1446 54.4392 23.3114 54.1697 23.3114 53.8747V53.8568C23.3114 53.6972 23.2641 53.5414 23.1758 53.4089L23.0139 53.166L22.1213 51.5299L20.1539 47.9639C19.8834 47.4736 19.7415 46.9225 19.7415 46.3626C19.7415 45.8481 19.8613 45.3405 20.0914 44.8803L20.3365 44.3902L24.5836 37.3117C24.7262 37.0742 24.9059 36.8613 25.1162 36.6809C25.5832 36.2807 26.1781 36.0607 26.7931 36.0607H34.6875C35.3017 36.0607 35.8843 35.7877 36.2776 35.3158C36.3595 35.2176 36.432 35.112 36.4945 35.0004L39.0591 30.4111C39.169 30.2143 39.2268 29.9924 39.2268 29.767V29.5596C39.2268 29.4341 39.1896 29.3116 39.12 29.207C39.0009 29.0286 38.8 28.9222 38.5856 28.9238Z" fill="#A7A7A7" stroke="#A7A7A7" stroke-width="0.207775"/>
  <path d="M38.5856 28.9238L21.8362 29.067C21.6324 29.0689 21.4316 29.1171 21.2493 29.2083C21.041 29.3124 20.8635 29.469 20.7343 29.6629L20.3365 30.2596L7.17354 53.7756C7.12426 53.8635 7.09839 53.9628 7.09839 54.0636C7.09839 54.3893 7.36249 54.6534 7.68824 54.6534H22.5325C22.6534 54.6534 22.7727 54.6254 22.8807 54.5711C23.1446 54.4392 23.3114 54.1697 23.3114 53.8747V53.8568C23.3114 53.6972 23.2641 53.5414 23.1758 53.4089L23.0139 53.166L22.1213 51.5299L20.1539 47.9639C19.8834 47.4736 19.7415 46.9225 19.7415 46.3626C19.7415 45.8481 19.8613 45.3405 20.0914 44.8803L20.3365 44.3902L24.5836 37.3117C24.7262 37.0742 24.9059 36.8613 25.1162 36.6809C25.5832 36.2807 26.1781 36.0607 26.7931 36.0607H34.6875C35.3017 36.0607 35.8843 35.7877 36.2776 35.3158C36.3595 35.2176 36.432 35.112 36.4945 35.0004L39.0591 30.4111C39.169 30.2143 39.2268 29.9924 39.2268 29.767V29.5596C39.2268 29.4341 39.1896 29.3116 39.12 29.207C39.0009 29.0286 38.8 28.9222 38.5856 28.9238Z" fill="#A7A7A7" stroke="#A7A7A7" stroke-width="0.207775"/>
  <path d="M1.25201 45.7297L14.8344 21.7438C14.9255 21.5827 15.0961 21.4834 15.2809 21.4834C15.464 21.4834 15.6333 21.5811 15.725 21.7394L18.5468 26.6134C18.7448 26.9554 18.8491 27.3437 18.8491 27.7391C18.8491 28.1237 18.7504 28.5016 18.5625 28.8372L5.08876 52.8871C5.04386 52.9671 4.95917 53.0168 4.86731 53.0168C4.59078 53.0168 4.33487 52.8707 4.19441 52.6324L1.26911 47.6722C1.09292 47.3734 1 47.0329 1 46.6861C1 46.3509 1.08682 46.0214 1.25201 45.7297Z" fill="#A7A7A7" stroke="#A7A7A7" stroke-width="0.207775"/>
  <path d="M20.8071 25.8166L18.2497 21.5154C18.0009 21.097 17.8696 20.6192 17.8696 20.1324C17.8696 19.9681 18.0028 19.835 18.1671 19.835H34.0349C34.7367 19.835 35.4149 20.0898 35.9433 20.5521C36.1884 20.7666 36.3958 21.0209 36.5564 21.3043L38.6888 25.0676C38.7894 25.2452 38.8424 25.4457 38.8424 25.6497V25.8982C38.8424 26.1933 38.6757 26.463 38.4118 26.5949C38.3036 26.6489 38.1843 26.6772 38.0634 26.6772H22.3201C22.1308 26.6772 21.943 26.6466 21.7635 26.5868C21.3626 26.4532 21.0231 26.1798 20.8071 25.8166Z" fill="#A7A7A7" stroke="#A7A7A7" stroke-width="0.207775"/>
  <path d="M34.6934 56.5887L32.1314 61.161C31.882 61.6058 31.5174 61.975 31.0759 62.23C30.9269 62.316 30.7364 62.2651 30.6503 62.1159L22.3402 47.7227C21.9726 47.0859 21.8486 46.3373 21.9913 45.6159C22.0574 45.2812 22.1796 44.9599 22.3526 44.6659L24.6494 40.7608C24.7576 40.5765 24.912 40.4234 25.0971 40.3166L25.3226 40.1865C25.59 40.0319 25.922 40.0419 26.1799 40.2121C26.2854 40.2819 26.3735 40.3754 26.4369 40.4851L34.6818 54.7657C34.7809 54.9373 34.8515 55.1237 34.8912 55.3177C34.98 55.7513 34.9097 56.2024 34.6934 56.5887Z" fill="#A7A7A7" stroke="#A7A7A7" stroke-width="0.207775"/>
  <path d="M44.1176 44.1649L52.7453 29.3539C52.8521 29.1706 53.0218 29.0327 53.223 28.9658C53.3119 28.9361 53.405 28.9209 53.4987 28.9209H59.5227C59.5769 28.9209 59.6311 28.9263 59.6845 28.9369C60.0704 29.0142 60.348 29.3529 60.348 29.7464V29.858C60.348 30.0238 60.3052 30.1867 60.2235 30.3311L58.4144 33.532L56.0346 37.8454L53.6547 42.0103L52.3848 44.2962C52.2408 44.5551 52.0521 44.7864 51.8271 44.9792C51.3748 45.3669 50.7984 45.5801 50.2025 45.5801H44.8789C44.6857 45.5801 44.4979 45.5175 44.3433 45.4016C44.1187 45.2331 43.9863 44.9686 43.9863 44.6877V44.6509C43.9863 44.4801 44.0316 44.3124 44.1176 44.1649Z" fill="#A7A7A7" stroke="#A7A7A7" stroke-width="0.207775"/>
  <path d="M44.1176 44.1649L52.7453 29.3539C52.8521 29.1706 53.0218 29.0327 53.223 28.9658C53.3119 28.9361 53.405 28.9209 53.4987 28.9209H59.5227C59.5769 28.9209 59.6311 28.9263 59.6845 28.9369C60.0704 29.0142 60.348 29.3529 60.348 29.7464V29.858C60.348 30.0238 60.3052 30.1867 60.2235 30.3311L58.4144 33.532L56.0346 37.8454L53.6547 42.0103L52.3848 44.2962C52.2408 44.5551 52.0521 44.7864 51.8271 44.9792C51.3748 45.3669 50.7984 45.5801 50.2025 45.5801H44.8789C44.6857 45.5801 44.4979 45.5175 44.3433 45.4016C44.1187 45.2331 43.9863 44.9686 43.9863 44.6877V44.6509C43.9863 44.4801 44.0316 44.3124 44.1176 44.1649Z" fill="#A7A7A7" stroke="#A7A7A7" stroke-width="0.207775"/>
</svg>