<svg width="66" height="65" viewBox="0 0 66 65" fill="none" xmlns="http://www.w3.org/2000/svg">
<path d="M34.5809 38.334H29.1474C29.0264 38.334 28.9072 38.362 28.7991 38.4163C28.5353 38.548 28.3686 38.8177 28.3686 39.1127V39.4765C28.3686 39.7028 28.4247 39.9257 28.5319 40.125L29.4098 41.755L32.3847 46.8122L34.6158 50.8283L36.4625 53.8622C36.6177 54.1172 36.8269 54.3351 37.0752 54.5007C37.4114 54.7249 37.8062 54.8444 38.2101 54.8444H64.5256C64.712 54.8444 64.895 54.7937 65.0548 54.6977L65.29 54.5568C65.4539 54.4583 65.5543 54.2811 65.5543 54.09C65.5543 53.9994 65.5316 53.9102 65.4884 53.8307L63.6205 50.382L61.2407 46.0686L58.8608 41.9038L58.0218 40.5852C57.8959 40.3874 57.6775 40.2675 57.443 40.2675C57.2136 40.2675 56.9996 40.3822 56.8722 40.5732L56.7785 40.7138L53.18 46.6153C53.1001 46.7462 53.0072 46.8687 52.9025 46.9812C52.4726 47.4426 51.8702 47.7046 51.2396 47.7046H42.2392C41.9251 47.7046 41.6197 47.6028 41.3683 47.4144C41.2309 47.3113 41.1127 47.1846 41.0196 47.0402L38.1856 42.6474L36.1205 39.2056C36.0106 39.0226 35.8691 38.8607 35.7024 38.7273C35.3841 38.4728 34.9887 38.334 34.5809 38.334Z" fill="#F9CA24" stroke="#F9CA24" stroke-width="0.207775"/>
<path d="M45.2283 1H39.5858C39.4511 1 39.3219 1.0535 39.2265 1.14874C39.1314 1.24398 39.078 1.37315 39.078 1.50784V1.75443C39.078 1.94249 39.126 2.12742 39.2176 2.29166L52.6463 26.3757C52.7225 26.5125 52.8302 26.629 52.9602 26.7157C53.1221 26.8237 53.3122 26.8813 53.5067 26.8813H58.8893C59.0667 26.8813 59.2423 26.8451 59.4052 26.7753L59.6119 26.6868C59.9683 26.5341 60.1993 26.1835 60.1993 25.7958C60.1993 25.6298 60.1567 25.4665 60.0755 25.3217L53.3571 13.3456L47.705 3.23115L46.9894 2.15776C46.8718 1.98132 46.737 1.81693 46.587 1.66699L46.4091 1.4891C46.2821 1.36219 46.1357 1.25656 45.9751 1.1763C45.7432 1.06036 45.4876 1 45.2283 1Z" fill="#F9CA24" stroke="#F9CA24" stroke-width="0.207775"/>
<path d="M63.0516 63.0162L65.7872 58.0809C65.8524 57.9631 65.8682 57.8243 65.8313 57.6949C65.7941 57.5654 65.707 57.4559 65.5892 57.3907L65.3735 57.271C65.209 57.18 65.024 57.1322 64.836 57.1328L37.261 57.2016C37.1047 57.202 36.9506 57.2396 36.8116 57.3113C36.6387 57.4006 36.4962 57.539 36.4018 57.709L33.7924 62.4167C33.7064 62.5719 33.6528 62.7429 33.6349 62.9196L33.6122 63.1431C33.573 63.5288 33.7674 63.9009 34.1065 64.0887C34.2518 64.1693 34.4153 64.2111 34.5813 64.2103L48.3129 64.1404L59.8995 64.1005L61.1852 63.995C61.3965 63.9778 61.6057 63.9395 61.8096 63.8811L62.0512 63.8117C62.2239 63.7623 62.3872 63.6854 62.5353 63.5838C62.7491 63.4373 62.9259 63.2429 63.0516 63.0162Z" fill="#F9CA24" stroke="#F9CA24" stroke-width="0.207775"/>
<path d="M50.4258 26.8764L37.0604 3.16379C36.9285 2.92956 36.6804 2.78467 36.4116 2.78467C36.214 2.78467 36.0245 2.86314 35.8848 3.00282L35.8765 3.0112C35.8294 3.0583 35.7886 3.1113 35.755 3.16886L28.0108 16.4656C27.9528 16.5652 27.9221 16.6785 27.9221 16.7938C27.9221 16.9668 27.9909 17.1327 28.1132 17.255L28.1623 17.304C28.2005 17.3422 28.2423 17.3765 28.2871 17.4065L28.3297 17.4348C28.5489 17.5809 28.8066 17.6589 29.07 17.6589H35.2563C35.4238 17.6589 35.5911 17.6728 35.7564 17.7003L35.8799 17.7209C36.2231 17.7781 36.5501 17.9075 36.8398 18.1005C37.1384 18.2995 37.3896 18.5615 37.5761 18.868L39.3755 21.8238L41.7401 26.3042C42.0431 26.8783 42.2014 27.5178 42.2014 28.1669V28.5214C42.2014 28.7157 42.1702 28.9087 42.1087 29.093C42.0715 29.2046 42.0233 29.3124 41.9652 29.4148L37.9593 36.4596C37.8151 36.7133 37.7392 37.0003 37.7392 37.292C37.7392 37.5849 37.8157 37.8729 37.9611 38.1274L41.1983 43.7926C41.2668 43.9125 41.3942 43.9863 41.5322 43.9863C41.6701 43.9863 41.7975 43.9125 41.8659 43.7926L50.4199 28.8231C50.5903 28.5251 50.6799 28.1879 50.6799 27.8447C50.6799 27.5054 50.5922 27.1719 50.4258 26.8764Z" fill="#F9CA24" stroke="#F9CA24" stroke-width="0.207775"/>
<path d="M38.5856 28.9663L21.8363 29.1095C21.6324 29.1114 21.4317 29.1596 21.2493 29.2508C21.041 29.3549 20.8635 29.5115 20.7344 29.7054L20.3365 30.3021L7.17357 53.8181C7.12429 53.9059 7.09842 54.0053 7.09842 54.106C7.09842 54.4318 7.36252 54.6959 7.68827 54.6959H22.5325C22.6534 54.6959 22.7727 54.6679 22.8807 54.6136C23.1446 54.4817 23.3115 54.2122 23.3115 53.9172V53.8993C23.3115 53.7397 23.2641 53.5839 23.1758 53.4513L23.0139 53.2084L22.1213 51.5724L20.1539 48.0064C19.8834 47.516 19.7415 46.965 19.7415 46.4051C19.7415 45.8906 19.8613 45.383 20.0915 44.9228L20.3365 44.4327L24.5837 37.3542C24.7262 37.1167 24.9059 36.9037 25.1162 36.7234C25.5833 36.3232 26.1781 36.1032 26.7931 36.1032H34.6875C35.3017 36.1032 35.8843 35.8302 36.2776 35.3583C36.3595 35.26 36.432 35.1545 36.4946 35.0429L39.0591 30.4536C39.169 30.2568 39.2268 30.0349 39.2268 29.8095V29.6021C39.2268 29.4766 39.1896 29.354 39.12 29.2495C39.0009 29.071 38.8 28.9647 38.5856 28.9663Z" fill="#F9CA24" stroke="#F9CA24" stroke-width="0.207775"/>
<path d="M38.5856 28.9663L21.8363 29.1095C21.6324 29.1114 21.4317 29.1596 21.2493 29.2508C21.041 29.3549 20.8635 29.5115 20.7344 29.7054L20.3365 30.3021L7.17357 53.8181C7.12429 53.9059 7.09842 54.0053 7.09842 54.106C7.09842 54.4318 7.36252 54.6959 7.68827 54.6959H22.5325C22.6534 54.6959 22.7727 54.6679 22.8807 54.6136C23.1446 54.4817 23.3115 54.2122 23.3115 53.9172V53.8993C23.3115 53.7397 23.2641 53.5839 23.1758 53.4513L23.0139 53.2084L22.1213 51.5724L20.1539 48.0064C19.8834 47.516 19.7415 46.965 19.7415 46.4051C19.7415 45.8906 19.8613 45.383 20.0915 44.9228L20.3365 44.4327L24.5837 37.3542C24.7262 37.1167 24.9059 36.9037 25.1162 36.7234C25.5833 36.3232 26.1781 36.1032 26.7931 36.1032H34.6875C35.3017 36.1032 35.8843 35.8302 36.2776 35.3583C36.3595 35.26 36.432 35.1545 36.4946 35.0429L39.0591 30.4536C39.169 30.2568 39.2268 30.0349 39.2268 29.8095V29.6021C39.2268 29.4766 39.1896 29.354 39.12 29.2495C39.0009 29.071 38.8 28.9647 38.5856 28.9663Z" fill="#F9CA24" stroke="#F9CA24" stroke-width="0.207775"/>
<path d="M1.25201 45.7727L14.8344 21.7867C14.9255 21.6257 15.0961 21.5264 15.2809 21.5264C15.464 21.5264 15.6333 21.624 15.725 21.7824L18.5468 26.6563C18.7448 26.9983 18.8491 27.3867 18.8491 27.7821C18.8491 28.1667 18.7504 28.5446 18.5625 28.8802L5.08876 52.9301C5.04386 53.0101 4.95917 53.0597 4.86731 53.0597C4.59078 53.0597 4.33487 52.9137 4.19441 52.6754L1.26911 47.7151C1.09292 47.4164 1 47.0758 1 46.729C1 46.3939 1.08682 46.0644 1.25201 45.7727Z" fill="#F9CA24" stroke="#F9CA24" stroke-width="0.207775"/>
<path d="M20.8071 25.8596L18.2497 21.5584C18.0009 21.14 17.8696 20.6622 17.8696 20.1754C17.8696 20.0111 18.0028 19.8779 18.1671 19.8779H34.0349C34.7367 19.8779 35.4149 20.1327 35.9433 20.595C36.1884 20.8096 36.3958 21.0639 36.5564 21.3473L38.6888 25.1105C38.7894 25.2882 38.8424 25.4887 38.8424 25.6927V25.9412C38.8424 26.2363 38.6757 26.5059 38.4118 26.6379C38.3036 26.6919 38.1843 26.7202 38.0634 26.7202H22.3201C22.1308 26.7202 21.943 26.6896 21.7635 26.6298C21.3626 26.4962 21.0231 26.2227 20.8071 25.8596Z" fill="#F9CA24" stroke="#F9CA24" stroke-width="0.207775"/>
<path d="M34.6935 56.6321L32.1314 61.2044C31.8821 61.6493 31.5174 62.0185 31.0759 62.2734C30.927 62.3594 30.7364 62.3085 30.6504 62.1594L22.3402 47.7662C21.9727 47.1293 21.8486 46.3807 21.9914 45.6593C22.0575 45.3246 22.1796 45.0034 22.3527 44.7094L24.6495 40.8043C24.7577 40.62 24.9121 40.4668 25.0972 40.36L25.3226 40.23C25.59 40.0754 25.9221 40.0854 26.1799 40.2555C26.2855 40.3253 26.3736 40.4188 26.4369 40.5285L34.6819 54.8091C34.781 54.9807 34.8516 55.1671 34.8913 55.3612C34.98 55.7948 34.9098 56.2459 34.6935 56.6321Z" fill="#F9CA24" stroke="#F9CA24" stroke-width="0.207775"/>
<path d="M44.1177 44.2074L52.7453 29.3964C52.8521 29.2131 53.0219 29.0752 53.223 29.0083C53.3119 28.9785 53.405 28.9634 53.4987 28.9634H59.5227C59.5769 28.9634 59.6312 28.9688 59.6846 28.9794C60.0704 29.0567 60.348 29.3953 60.348 29.7889V29.9004C60.348 30.0662 60.3052 30.2291 60.2235 30.3735L58.4144 33.5745L56.0346 37.8879L53.6547 42.0528L52.3848 44.3387C52.2408 44.5976 52.0522 44.8289 51.8272 45.0217C51.3748 45.4094 50.7985 45.6226 50.2026 45.6226H44.879C44.6857 45.6226 44.4979 45.56 44.3433 45.4441C44.1187 45.2756 43.9864 45.0111 43.9864 44.7302V44.6934C43.9864 44.5226 44.0317 44.3549 44.1177 44.2074Z" fill="#F9CA24" stroke="#F9CA24" stroke-width="0.207775"/>
<path d="M44.1177 44.2074L52.7453 29.3964C52.8521 29.2131 53.0219 29.0752 53.223 29.0083C53.3119 28.9785 53.405 28.9634 53.4987 28.9634H59.5227C59.5769 28.9634 59.6312 28.9688 59.6846 28.9794C60.0704 29.0567 60.348 29.3953 60.348 29.7889V29.9004C60.348 30.0662 60.3052 30.2291 60.2235 30.3735L58.4144 33.5745L56.0346 37.8879L53.6547 42.0528L52.3848 44.3387C52.2408 44.5976 52.0522 44.8289 51.8272 45.0217C51.3748 45.4094 50.7985 45.6226 50.2026 45.6226H44.879C44.6857 45.6226 44.4979 45.56 44.3433 45.4441C44.1187 45.2756 43.9864 45.0111 43.9864 44.7302V44.6934C43.9864 44.5226 44.0317 44.3549 44.1177 44.2074Z" fill="#F9CA24" stroke="#F9CA24" stroke-width="0.207775"/>
</svg>
